<?xml version="1.0" encoding="UTF-8" standalone="no"?>
<!--part of the matt icon theme by sixsixfive released under CC0 (https://creativecommons.org/publicdomain/zero/1.0/) on openclipart-->
<svg xmlns="http://www.w3.org/2000/svg" xmlns:xlink="http://www.w3.org/1999/xlink" viewBox="0 0 128 128">
 <defs id="0">
  <linearGradient id="B">
   <stop id="V" stop-color="#323232" stop-opacity="0.646"/>
   <stop id="W" offset="1" stop-color="#fff"/>
  </linearGradient>
  <linearGradient id="C">
   <stop id="X"/>
   <stop id="Y" offset="1" stop-opacity="0"/>
  </linearGradient>
  <linearGradient id="D">
   <stop id="Z" stop-color="#eee"/>
   <stop id="a" offset="1" stop-color="#eee" stop-opacity="0"/>
  </linearGradient>
  <linearGradient id="E">
   <stop id="b" stop-color="#888"/>
   <stop id="c" offset="1" stop-color="#b9b9b9"/>
  </linearGradient>
  <linearGradient x1="51.589" y1="26.674" x2="51.33" y2="8.05" id="F" xlink:href="#E" gradientUnits="userSpaceOnUse" gradientTransform="matrix(2.0629981,0,0,2.0629981,-2.0159392,-1.5001897)"/>
  <linearGradient y1="15.244" x2="0" y2="23.485" id="G" xlink:href="#D" gradientUnits="userSpaceOnUse"/>
  <radialGradient cx="64.46" cy="118.99" r="63.37" id="H" xlink:href="#C" gradientUnits="userSpaceOnUse" gradientTransform="matrix(1.0813842,-2.0961887e-8,0,0.06678082,-5.2457172,111.04701)"/>
  <filter x="-0.071" y="-1.057" width="1.141" height="3.114" color-interpolation-filters="sRGB" id="I">
   <feGaussianBlur stdDeviation="3.72722" id="d"/>
  </filter>
  <linearGradient y1="40.981" x2="0" y2="107.92" id="J" xlink:href="#B" gradientUnits="userSpaceOnUse"/>
  <linearGradient gradientUnits="userSpaceOnUse" xlink:href="#L" id="K" y2="101.01" x2="0" y1="22.88"/>
  <linearGradient id="L">
   <stop id="e" stop-color="#f0ff80"/>
   <stop offset="1" id="f" stop-color="#e3ad00"/>
  </linearGradient>
  <linearGradient gradientUnits="userSpaceOnUse" xlink:href="#P" id="M" y2="121.04" x2="0" y1="8.211"/>
  <radialGradient gradientTransform="matrix(1.2606553,0,0,0.9847417,-16.476307,0.9860661)" gradientUnits="userSpaceOnUse" xlink:href="#D" id="N" r="54.27" cy="-8.84" cx="63.21"/>
  <radialGradient gradientTransform="matrix(1,0,0,8.641975e-2,0,107.20963)" gradientUnits="userSpaceOnUse" xlink:href="#C" id="O" r="53.91" cy="117.35" cx="63.894"/>
  <linearGradient id="P">
   <stop id="g" stop-color="#888"/>
   <stop offset="1" id="h" stop-color="#494949"/>
  </linearGradient>
 </defs>
 <path d="m 127.82733,118.99349 a 63.371106,4.2319747 0 1 1 -126.7422127,0 63.371106,4.2319747 0 1 1 126.7422127,0 z" transform="matrix(1.009924,0,0,1,-1.0958904,-3.3064667)" id="1" opacity="0.568" fill="url(#H)" filter="url(#I)"/>
 <path d="m 7.09375,6.78125 c -2.9848755,0 -5.4375,2.4096283 -5.4375,5.40625 l 0,39.09375 c 0,2.996621 2.4408787,5.437499 5.4375,5.4375 l 49.8125,0 c 2.996622,0 5.437499,-2.440879 5.4375,-5.4375 l 0,-39.09375 c 0,-2.9966223 -2.452626,-5.40625 -5.4375,-5.40625 l -49.8125,0 z" transform="matrix(2.0629981,0,0,2.0629981,-2.0159392,-1.5001897)" id="2" fill="#555"/>
 <rect width="119.9" height="97.76" rx="8.558" x="4.047" y="15.12" id="3" fill="url(#F)"/>
 <path d="m 12.038236,41.049146 c -2.2898752,0 -4.1259969,1.90059 -4.1259969,4.190464 l 0,58.4731 c 0,2.28988 1.8361217,4.12599 4.1259969,4.12599 l 15.73036,0 12.635863,0 0.386812,0 74.912619,0 c 2.24085,0 3.99706,-1.82067 3.99706,-4.06152 l 0,-58.666507 c 0,-2.240855 -1.75621,-4.061527 -3.99706,-4.061527 l -74.912619,0 -0.386812,0 -12.635863,0 -15.73036,0 z" id="4" fill="#eee"/>
 <path d="M 12.59375,16.34375 C 8.5082167,16.34375 5.25,19.601966 5.25,23.6875 l 0,80.625 c 0,4.08554 3.2582164,7.34375 7.34375,7.34375 l 102.78125,0 c 4.08554,0 7.34375,-3.25821 7.34375,-7.34375 l 0,-80.625 c 0,-4.085534 -3.25821,-7.34375 -7.34375,-7.34375 l -102.78125,0 z" id="5" opacity="0.898" fill="none" stroke="url(#G)" stroke-width="2.2"/>
 <path d="m 105.22307,25.426434 a 4.44738,4.1635049 0 1 1 -8.89476,0 4.44738,4.1635049 0 1 1 8.89476,0 z" transform="matrix(1.3491096,0,0,1.4410943,-25.112886,-7.9421993)" id="6" opacity="0.898" fill="#323232"/>
 <path d="m 105.22307,25.426434 a 4.44738,4.1635049 0 1 1 -8.89476,0 4.44738,4.1635049 0 1 1 8.89476,0 z" transform="matrix(1.3491096,0,0,1.4410943,-38.712448,-7.9421993)" id="7" opacity="0.898" fill="#323232"/>
 <path d="m 105.22307,25.426434 a 4.44738,4.1635049 0 1 1 -8.89476,0 4.44738,4.1635049 0 1 1 8.89476,0 z" transform="matrix(1.3491096,0,0,1.4410943,-52.312448,-7.9421993)" id="8" opacity="0.898" fill="#323232"/>
 <path d="M 12.03125,42.03125 C 10.276324,42.031251 8.875,43.477456 8.875,45.25 l 0,58.46875 c 0,1.77255 1.383703,3.15625 3.15625,3.15625 l 15.75,0 12.625,0 0.375,0 74.9375,0 c 1.71608,0 3,-1.35066 3,-3.09375 l 0,-58.65625 c 0,-1.743095 -1.28392,-3.09375 -3,-3.09375 l -74.9375,0 -0.375,0 -12.625,0 -15.75,0 z" id="9" fill="none" stroke="url(#J)" stroke-width="2.1"/>
 <g id="A" transform="matrix(0.5857126,0,0,0.5857126,54.716369,53.514397)">
  <path id="Q" transform="translate(1.2996963,3.4536055)" d="M 117.80366,117.35108 C 117.80366,119.92412 93.667264,122.00998 63.89351,122.00998 C 34.119757,122.00998 9.9833603,119.92412 9.9833603,117.35108 C 9.9833603,114.77804 34.119757,112.69218 63.89351,112.69218 C 93.667264,112.69218 117.80366,114.77804 117.80366,117.35108 z" opacity="0.443" fill="url(#O)"/>
  <path id="R" transform="matrix(1.0119373,0,0,1.0266947,-2.1350421,-4.4029736)" d="M 122.08898,64.625572 C 122.08898,95.508572 96.68826,120.54419 65.354882,120.54419 C 34.021505,120.54419 8.6207843,95.508572 8.6207848,64.625572 C 8.6207843,33.742572 34.021505,8.7069536 65.354882,8.7069536 C 96.68826,8.7069536 122.08898,33.742572 122.08898,64.625572 L 122.08898,64.625572 z" fill="url(#M)" stroke="#323232"/>
  <path id="S" transform="matrix(1.0119373,0,0,1.0266947,-2.1350421,-4.4029736)" d="M 122.08898,64.625572 C 122.08898,95.508572 96.68826,120.54419 65.354882,120.54419 C 34.021505,120.54419 8.6207843,95.508572 8.6207848,64.625572 C 8.6207843,33.742572 34.021505,8.7069536 65.354882,8.7069536 C 96.68826,8.7069536 122.08898,33.742572 122.08898,64.625572 L 122.08898,64.625572 z" fill="none" stroke="#323232" stroke-width="3.924"/>
  <path id="T" transform="matrix(1.0119373,0,0,1.0266947,-2.1350421,-4.4029736)" d="M 65.34375,12.21875 C 35.896134,12.21875 12.125,35.682244 12.125,64.625 C 12.125,93.567756 35.896134,117.03125 65.34375,117.03125 C 94.791366,117.03125 118.59375,93.565388 118.59375,64.625 C 118.59375,35.684612 94.791366,12.21875 65.34375,12.21875 L 65.34375,12.21875 z" fill="none" stroke="url(#N)" stroke-width="2.079"/>
  <path id="U" d="M 63.911046,22.881773 C 63.858495,22.889675 63.806352,22.900087 63.754796,22.912973 C 63.171373,22.991071 62.672447,23.371205 62.442296,23.912973 L 51.661046,48.944223 L 24.536046,51.475473 C 23.891423,51.552167 23.350033,51.996272 23.148777,52.613456 C 22.947522,53.23064 23.123047,53.908522 23.598546,54.350473 L 44.098546,72.381723 L 38.098546,99.006723 C 37.963878,99.650845 38.220923,100.31389 38.754568,100.69892 C 39.288213,101.08396 39.998484,101.11885 40.567296,100.78797 L 64.036046,86.850473 L 87.473546,100.75672 C 88.042358,101.0876 88.752629,101.05271 89.286274,100.66767 C 89.819919,100.28264 90.076964,99.619595 89.942296,98.975473 L 83.942296,72.350473 L 104.37979,54.350473 C 104.87599,53.91181 105.06527,53.220918 104.86195,52.590604 C 104.65862,51.960291 104.10129,51.510243 103.44229,51.444223 L 76.317296,48.944223 L 65.504796,23.881723 C 65.230579,23.251638 64.597677,22.854523 63.911046,22.881723 L 63.911046,22.881773 z" fill="url(#K)"/>
 </g>
</svg>
